<svg width="20" height="20" viewBox="0 0 20 20" fill="none" xmlns="http://www.w3.org/2000/svg">
<path d="M11.1192 1.66671C10.8045 2.55668 10.7481 3.51754 10.9567 4.43818C11.1652 5.35882 11.6301 6.20162 12.2976 6.8691C12.9651 7.53658 13.8079 8.00148 14.7285 8.21002C15.6492 8.41857 16.61 8.36224 17.5 8.04755V17.5C17.5 17.7211 17.4122 17.933 17.2559 18.0893C17.0996 18.2456 16.8877 18.3334 16.6667 18.3334H5.41667C4.64312 18.3334 3.90125 18.0261 3.35427 17.4791C2.80729 16.9321 2.5 16.1903 2.5 15.4167V4.16671C2.5 3.50367 2.76339 2.86779 3.23223 2.39895C3.70107 1.9301 4.33696 1.66671 5 1.66671H11.1192ZM5.41667 14.1667C5.08515 14.1667 4.7672 14.2984 4.53278 14.5328C4.29836 14.7673 4.16667 15.0852 4.16667 15.4167C4.16667 15.7482 4.29836 16.0662 4.53278 16.3006C4.7672 16.535 5.08515 16.6667 5.41667 16.6667H15.8333V14.1667H5.41667ZM15.4417 0.275046C15.4732 0.197028 15.5274 0.130213 15.5971 0.0831669C15.6669 0.0361205 15.7492 0.0109863 15.8333 0.0109863C15.9175 0.0109863 15.9997 0.0361205 16.0695 0.0831669C16.1393 0.130213 16.1934 0.197028 16.225 0.275046L16.4367 0.783379C16.7904 1.64594 17.4615 2.33999 18.3117 2.72255L18.91 2.98921C18.9865 3.02461 19.0513 3.08116 19.0967 3.15219C19.1421 3.22322 19.1662 3.30575 19.1662 3.39005C19.1662 3.47434 19.1421 3.55687 19.0967 3.6279C19.0513 3.69893 18.9865 3.75548 18.91 3.79088L18.2767 4.07255C17.4478 4.44449 16.7884 5.11345 16.4283 5.94755L16.2225 6.41921C16.1905 6.49602 16.1364 6.56163 16.0672 6.60777C15.9979 6.65392 15.9166 6.67855 15.8333 6.67855C15.7501 6.67855 15.6688 6.65392 15.5995 6.60777C15.5303 6.56163 15.4762 6.49602 15.4442 6.41921L15.2392 5.94838C14.8789 5.11367 14.2188 4.44435 13.3892 4.07255L12.7558 3.79088C12.6791 3.75558 12.6141 3.69902 12.5685 3.6279C12.523 3.55679 12.4987 3.47409 12.4987 3.38963C12.4987 3.30517 12.523 3.22247 12.5685 3.15136C12.6141 3.08024 12.6791 3.02368 12.7558 2.98838L13.3542 2.72171C14.2042 2.33993 14.8755 1.64682 15.23 0.785046L15.4417 0.275046Z" fill="#280F0B"/>
</svg>
