<svg width="32" height="22" viewBox="0 0 32 22" fill="none" xmlns="http://www.w3.org/2000/svg">
<path d="M19.7364 0.689903C23.1619 1.22876 25.8537 6.41529 27.0771 9.10958C28.0893 11.3389 28.9746 13.8475 27.9921 16.0901C27.7111 16.7317 27.3166 17.3512 26.7712 17.866C25.0585 19.4826 21.8528 20.625 17.3366 20.625C14.3801 20.625 11.014 20.625 7.50268 19.8868C3.58536 19.0632 1.38214 18.2028 0.770455 16.1821C0.281105 14.5655 1.0799 12.8142 2.60918 11.1303L5.05213 8.77279L7.50268 6.41527C11.169 3.04742 16.311 0.151044 19.7364 0.689903Z" stroke="#3F3F3F" stroke-width="1.25"/>
<path d="M25.0244 5.19409C17.92 12.7444 9.54949 10.4409 6.23242 8.31812L6.90625 7.26538C9.8943 9.17756 17.551 11.312 24.1143 4.33667L25.0244 5.19409Z" fill="#3F3F3F"/>
<path d="M28.5664 11.8755C23.9608 16.4258 18.664 17.4679 13.8281 16.9429C9.01673 16.4204 4.6521 14.3491 1.80859 12.6626L2.44531 11.5874C5.21348 13.2293 9.40213 15.2044 13.9639 15.6997C18.5013 16.1923 23.3992 15.2235 27.6875 10.9868L28.5664 11.8755Z" fill="#3F3F3F"/>
</svg>
